HIERARCHY
ROOT Hips
{
	OFFSET 56.877701 -32.693596 43.373703
	CHANNELS 6 Xposition Yposition Zposition Zrotation Xrotation Yrotation
	JOINT Chest
	{
		OFFSET -0.779999 1.005800 5.403099
		CHANNELS 6 Xposition Yposition Zposition Zrotation Xrotation Yrotation
		JOINT Chest2
		{
			OFFSET 0.000000 0.000000 4.236801
			CHANNELS 6 Xposition Yposition Zposition Zrotation Xrotation Yrotation
			JOINT Neck
			{
				OFFSET 0.000000 0.000000 9.874401
				CHANNELS 6 Xposition Yposition Zposition Zrotation Xrotation Yrotation
				JOINT Head
				{
					OFFSET 0.000000 0.000002 2.173893
					CHANNELS 6 Xposition Yposition Zposition Zrotation Xrotation Yrotation
					End Site
					{
						OFFSET 0.000000 0.000000 6.508102
					}
				}
			}
			JOINT LeftCollar
			{
				OFFSET 2.681599 -0.377600 5.432499
				CHANNELS 6 Xposition Yposition Zposition Zrotation Xrotation Yrotation
				JOINT LeftShoulder
				{
					OFFSET 5.161499 0.000000 0.000000
					CHANNELS 6 Xposition Yposition Zposition Zrotation Xrotation Yrotation
					JOINT LeftElbow
					{
						OFFSET 0.000000 0.000000 -10.869099
						CHANNELS 6 Xposition Yposition Zposition Zrotation Xrotation Yrotation
						JOINT LeftWrist
						{
							OFFSET 0.000000 0.000000 -13.344799
							CHANNELS 6 Xposition Yposition Zposition Zrotation Xrotation Yrotation
							End Site
							{
								OFFSET 0.000000 0.000000 -2.173901
							}
						}
					}
				}
			}
			JOINT RightCollar
			{
				OFFSET -2.381901 -1.419600 6.136600
				CHANNELS 6 Xposition Yposition Zposition Zrotation Xrotation Yrotation
				JOINT RightShoulder
				{
					OFFSET -4.550499 0.000000 0.000000
					CHANNELS 6 Xposition Yposition Zposition Zrotation Xrotation Yrotation
					JOINT RightElbow
					{
						OFFSET 0.000000 0.000000 -11.106499
						CHANNELS 6 Xposition Yposition Zposition Zrotation Xrotation Yrotation
						JOINT RightWrist
						{
							OFFSET 0.000000 0.000000 -12.874298
							CHANNELS 6 Xposition Yposition Zposition Zrotation Xrotation Yrotation
							End Site
							{
								OFFSET 0.000000 0.000000 -2.173901
							}
						}
					}
				}
			}
		}
	}
	JOINT LeftHip
	{
		OFFSET 2.431900 0.469601 -2.489399
		CHANNELS 6 Xposition Yposition Zposition Zrotation Xrotation Yrotation
		JOINT LeftKnee
		{
			OFFSET 0.000000 -0.000004 -18.200201
			CHANNELS 6 Xposition Yposition Zposition Zrotation Xrotation Yrotation
			JOINT LeftAnkle
			{
				OFFSET 0.000000 0.000000 -16.279900
				CHANNELS 6 Xposition Yposition Zposition Zrotation Xrotation Yrotation
				End Site
				{
					OFFSET 0.000000 -8.394100 0.000000
				}
			}
		}
	}
	JOINT RightHip
	{
		OFFSET -1.987999 -0.073502 -2.713001
		CHANNELS 6 Xposition Yposition Zposition Zrotation Xrotation Yrotation
		JOINT RightKnee
		{
			OFFSET 0.000000 -0.000004 -19.547802
			CHANNELS 6 Xposition Yposition Zposition Zrotation Xrotation Yrotation
			JOINT RightAnkle
			{
				OFFSET 0.000000 0.000000 -14.881199
				CHANNELS 6 Xposition Yposition Zposition Zrotation Xrotation Yrotation
				End Site
				{
					OFFSET 0.000000 -7.922699 0.000000
				}
			}
		}
	}
}
MOTION
Frames: 8
Frame Time: 0.041667
65.586906 -34.542194 46.097404 4564.247576 3.960873 -3.274296 -0.779996 1.005808 5.403093 14.976587 6.080535 2.838832 0.000001 -0.000006 4.236806 -5.863829 -0.143808 -0.169780 0.000006 0.000002 9.874411 32.979329 15.006781 12.379902 0.000004 -0.000000 2.173900 2.134121 1.135902 4.383115 2.681603 -0.377602 5.432510 -12.104790 5.516526 -1.441830 5.161500 -0.000003 -0.000006 196.564020 -171.612328 176.593448 -0.000005 0.000011 -10.869096 56.234030 -8.302997 21.730202 0.000006 0.000004 -13.344802 29.192888 -25.453993 34.713870 -2.381890 -1.419596 6.136602 21.153642 4.153307 3.619165 -4.550498 -0.000002 -0.000008 -1237.370293 -529.509213 -528.511350 0.000004 -0.000004 -11.106501 707.385207 -28.012295 701.092089 0.000010 -0.000003 -12.874296 -375.422167 7.067645 -78.181070 2.431909 0.469604 -2.489394 19.889748 -22.189355 -0.547059 0.000003 -0.000003 -18.200203 2.552693 43.964193 3.374731 -0.000004 0.000001 -16.279900 7.095260 50.015471 -0.994856 -1.987998 -0.073491 -2.712998 -20.286362 -13.395477 3.098232 -0.000002 -0.000007 -19.547800 -1465.014816 35.592263 -350.724449 0.000004 0.000002 -14.881201 2170.628873 49.052366 -346.033530
65.673103 -34.510994 46.046101 4561.012361 3.787507 -2.971964 -0.779996 1.005800 5.403095 14.745875 6.074077 2.512981 -0.000001 -0.000012 4.236801 -5.633064 -0.227224 -0.173942 0.000000 0.000013 9.874405 34.179920 14.974030 12.087518 0.000003 -0.000003 2.173895 2.205443 1.190162 4.632117 2.681598 -0.377604 5.432495 -12.066748 5.419214 -1.231137 5.161495 0.000004 -0.000008 196.849207 -171.807330 176.459631 0.000003 -0.000004 -10.869099 55.798223 -8.010112 20.214343 0.000005 0.000004 -13.344805 29.401365 -25.086262 34.631815 -2.381899 -1.419598 6.136592 21.307829 4.570376 3.477182 -4.550490 -0.000005 0.000000 -1236.292981 -529.772968 -527.766914 0.000008 -0.000007 -11.106503 709.644579 -27.913501 702.744230 0.000005 -0.000004 -12.874293 -379.179454 7.063285 -78.218561 2.431906 0.469601 -2.489403 21.875235 -23.256393 -0.330540 0.000004 -0.000003 -18.200197 -1.472485 46.238871 4.563321 -0.000003 0.000011 -16.279905 10.194847 49.159399 -0.693547 -1.988001 -0.073500 -2.712996 -18.082813 -12.680219 3.549457 -0.000003 -0.000007 -19.547802 -1462.856585 35.434847 -352.607123 -0.000000 0.000000 -14.881199 2171.080867 48.803525 -346.215623
65.757500 -34.487198 45.983601 4558.255369 3.717481 -2.691549 -0.780006 1.005804 5.403090 14.198409 5.946234 2.126897 -0.000001 -0.000005 4.236803 -5.443385 -0.309752 -0.175473 0.000000 0.000003 9.874393 35.359777 14.996900 11.859942 0.000002 0.000012 2.173910 2.334012 1.105614 4.791455 2.681602 -0.377605 5.432499 -12.035983 5.197012 -0.961014 5.161515 0.000004 -0.000000 197.055206 -172.097271 176.257430 -0.000005 0.000006 -10.869099 55.823013 -7.588405 18.797393 0.000005 -0.000001 -13.344800 28.704293 -24.200665 34.016395 -2.381892 -1.419605 6.136594 21.031703 4.509006 3.501706 -4.550495 0.000002 0.000001 -1235.618049 -530.434294 -527.423984 0.000004 -0.000005 -11.106503 711.457093 -27.865012 704.064205 0.000006 0.000003 -12.874290 -380.920934 7.313376 -78.352324 2.431902 0.469599 -2.489402 23.087685 -24.250817 -0.036389 -0.000003 0.000001 -18.200199 -5.670944 48.305526 6.021636 -0.000001 0.000011 -16.279900 13.485712 48.254392 -1.724674 -1.988005 -0.073497 -2.713001 -16.513526 -12.144319 3.889446 0.000003 -0.000006 -19.547802 -1460.556396 35.311723 -354.479250 -0.000008 0.000008 -14.881199 2171.213974 48.447819 -345.843596
65.817299 -34.464394 45.906902 4555.533347 3.522199 -2.403043 -0.780003 1.005785 5.403090 13.207423 5.804178 1.762553 -0.000001 -0.000003 4.236796 -4.963853 -0.349907 -0.168807 0.000000 0.000002 9.874397 36.210009 15.016318 11.816989 0.000003 -0.000002 2.173895 2.855424 0.996712 4.772972 2.681606 -0.377598 5.432496 -12.096766 5.126903 -1.040964 5.161504 -0.000001 0.000000 197.474743 -172.473915 176.365197 0.000001 0.000003 -10.869099 56.108167 -7.216373 17.733731 -0.000001 0.000002 -13.344796 26.883867 -23.149973 32.226800 -2.381892 -1.419599 6.136589 21.121472 4.968289 3.388749 -4.550492 0.000010 -0.000003 -1234.870007 -530.839734 -526.646271 0.000002 0.000001 -11.106498 713.699744 -27.653969 705.436964 0.000003 0.000004 -12.874296 -384.580905 7.559139 -78.721810 2.431891 0.469593 -2.489400 23.780735 -24.841045 0.094648 0.000002 -0.000007 -18.200201 -9.394933 49.860084 7.467929 -0.000001 -0.000003 -16.279896 15.589111 46.926989 -1.669238 -1.988006 -0.073516 -2.713002 -15.388589 -11.618428 4.150072 -0.000002 -0.000007 -19.547800 -1459.365320 35.036985 -355.616777 -0.000000 -0.000001 -14.881198 2172.167578 48.312687 -345.588721
65.843597 -34.439102 45.816902 4552.850230 3.081663 -1.977834 -0.780002 1.005804 5.403097 12.827499 5.941645 1.160316 0.000000 -0.000005 4.236793 -4.914190 -0.427009 -0.175822 0.000011 -0.000000 9.874396 37.263350 15.055286 11.421672 -0.000001 0.000003 2.173877 2.971124 0.938844 4.920019 2.681601 -0.377602 5.432493 -12.203045 5.209873 -0.693104 5.161508 0.000005 0.000001 197.287514 -172.440188 176.017882 -0.000008 0.000005 -10.869095 56.167986 -6.849721 16.254322 0.000006 0.000006 -13.344801 25.542980 -22.094820 29.551954 -2.381897 -1.419599 6.136591 21.028715 5.072730 2.990854 -4.550498 -0.000007 -0.000001 -1234.070929 -531.872404 -525.788727 0.000005 0.000001 -11.106508 716.035778 -27.590290 707.112655 0.000004 -0.000009 -12.874290 -388.255027 7.771798 -79.044789 2.431901 0.469599 -2.489389 24.613942 -25.093768 0.101296 0.000006 0.000000 -18.200201 -12.602549 51.057467 8.463384 -0.000000 -0.000004 -16.279896 16.109341 45.294399 -1.381044 -1.987999 -0.073505 -2.713000 -14.364544 -10.831724 4.320998 -0.000003 -0.000003 -19.547804 -1460.299799 34.446686 -355.948506 -0.000009 0.000005 -14.881195 2174.322420 48.523641 -345.476132
65.845398 -34.404800 45.730400 4550.250606 2.756871 -1.646947 -0.780001 1.005788 5.403094 12.315629 5.901313 0.637205 0.000002 0.000003 4.236801 -4.748109 -0.401528 -0.186673 0.000004 0.000010 9.874390 38.376586 15.177372 11.014144 -0.000005 0.000000 2.173894 2.862484 0.964397 5.084410 2.681595 -0.377591 5.432492 -12.256379 5.040075 -0.542095 5.161505 0.000006 -0.000003 197.097061 -172.682482 175.847045 -0.000004 0.000010 -10.869099 56.707181 -6.307561 14.916267 -0.000003 -0.000004 -13.344799 24.734065 -21.420380 29.262306 -2.381906 -1.419588 6.136587 20.671112 4.904777 3.180790 -4.550496 0.000012 0.000006 -1233.411953 -532.793223 -525.495084 0.000006 -0.000001 -11.106502 716.572303 -26.859760 707.976975 0.000001 -0.000007 -12.874308 -388.943893 8.333534 -79.578029 2.431892 0.469586 -2.489396 25.087672 -25.128392 0.200351 0.000001 -0.000011 -18.200211 -14.600673 51.739718 8.733309 -0.000001 -0.000001 -16.279896 16.168770 43.903384 -3.801452 -1.988002 -0.073518 -2.713000 -12.717888 -9.979490 4.570788 0.000002 -0.000002 -19.547802 -1461.610103 33.720364 -356.505576 -0.000004 0.000001 -14.881204 2175.788999 48.611337 -345.406655
65.851006 -34.339092 45.630005 4547.776438 2.233740 -1.354533 -0.780004 1.005812 5.403102 12.070756 6.030997 0.174330 -0.000000 -0.000008 4.236796 -4.780386 -0.401493 -0.170449 0.000002 0.000005 9.874397 39.204224 15.287811 10.439077 0.000006 0.000008 2.173887 2.959833 0.991324 5.214276 2.681596 -0.377606 5.432503 -12.572947 5.111632 0.267788 5.161501 0.000000 -0.000003 196.193386 -172.496427 174.857077 -0.000005 0.000005 -10.869100 56.928817 -5.870013 13.256492 0.000002 0.000001 -13.344792 24.405461 -20.886642 27.981661 -2.381901 -1.419602 6.136599 20.211937 4.636763 2.715143 -4.550503 0.000000 -0.000001 -1232.873297 -534.118116 -524.748025 0.000001 -0.000009 -11.106492 715.436415 -25.858591 708.128823 0.000001 -0.000006 -12.874297 -387.783061 8.641009 -80.020113 2.431901 0.469617 -2.489388 24.304361 -24.622571 -0.167733 0.000002 -0.000004 -18.200197 -15.250422 51.789165 8.585746 -0.000005 0.000019 -16.279898 15.161779 42.331293 -6.010915 -1.987999 -0.073494 -2.712990 -12.450354 -9.280064 4.374661 0.000003 0.000000 -19.547806 -1462.446118 33.264220 -356.383452 -0.000000 0.000001 -14.881200 2177.163342 48.497475 -345.161014
65.829910 -34.268593 45.530003 4544.964804 1.765309 -1.086960 -0.779992 1.005800 5.403099 12.103321 5.990219 -0.170943 0.000002 -0.000009 4.236803 -4.773079 -0.269324 -0.151535 0.000008 -0.000000 9.874400 39.998892 15.388753 9.816080 -0.000005 0.000015 2.173887 3.007444 1.053686 5.413609 2.681594 -0.377600 5.432501 -12.597124 5.160575 -0.076367 5.161504 0.000001 -0.000002 195.291952 -172.614918 175.003981 0.000001 0.000009 -10.869099 56.116360 -5.495320 11.278249 -0.000001 0.000003 -13.344798 24.414337 -20.911420 27.464606 -2.381897 -1.419603 6.136593 20.181799 4.500369 2.684446 -4.550495 -0.000001 0.000005 -1233.450530 -534.796927 -524.454108 0.000003 -0.000015 -11.106503 714.096168 -24.282526 708.218818 -0.000004 -0.000006 -12.874294 -383.890728 8.692591 -81.326386 2.431901 0.469600 -2.489392 24.043991 -23.951599 -0.393764 0.000008 -0.000005 -18.200203 -15.588206 51.383578 8.080439 -0.000001 0.000003 -16.279903 13.477512 40.595861 -8.599151 -1.988004 -0.073498 -2.713001 -12.145003 -8.742279 4.130941 -0.000006 -0.000011 -19.547798 -1462.991877 33.102174 -356.083252 0.000002 -0.000001 -14.881191 2178.317808 48.122798 -344.893763
